<svg width="13" height="12" viewBox="0 0 13 12" fill="none" xmlns="http://www.w3.org/2000/svg">
<path d="M6.66738 3.20508C8.26698 3.20508 9.5873 4.52539 9.5873 6.125C9.5873 7.75 8.26698 9.04492 6.66738 9.04492C5.04238 9.04492 3.74745 7.75 3.74745 6.125C3.74745 4.52539 5.04238 3.20508 6.66738 3.20508ZM6.66738 8.0293C7.70839 8.0293 8.54628 7.19141 8.54628 6.125C8.54628 5.08398 7.70839 4.24609 6.66738 4.24609C5.60097 4.24609 4.76308 5.08398 4.76308 6.125C4.76308 7.19141 5.62636 8.0293 6.66738 8.0293ZM10.3744 3.10352C10.3744 3.48438 10.0697 3.78906 9.68886 3.78906C9.308 3.78906 9.00331 3.48438 9.00331 3.10352C9.00331 2.72266 9.308 2.41797 9.68886 2.41797C10.0697 2.41797 10.3744 2.72266 10.3744 3.10352ZM12.3041 3.78906C12.3549 4.72852 12.3549 7.54688 12.3041 8.48633C12.2533 9.40039 12.0502 10.1875 11.39 10.873C10.7299 11.5332 9.91738 11.7363 9.00331 11.7871C8.06386 11.8379 5.2455 11.8379 4.30605 11.7871C3.39198 11.7363 2.60488 11.5332 1.91933 10.873C1.25917 10.1875 1.05605 9.40039 1.00527 8.48633C0.954484 7.54688 0.954484 4.72852 1.00527 3.78906C1.05605 2.875 1.25917 2.0625 1.91933 1.40234C2.60488 0.742188 3.39198 0.539062 4.30605 0.488281C5.2455 0.4375 8.06386 0.4375 9.00331 0.488281C9.91738 0.539062 10.7299 0.742188 11.39 1.40234C12.0502 2.0625 12.2533 2.875 12.3041 3.78906ZM11.0853 9.47656C11.39 8.74023 11.3139 6.96289 11.3139 6.125C11.3139 5.3125 11.39 3.53516 11.0853 2.77344C10.8822 2.29102 10.5014 1.88477 10.0189 1.70703C9.25722 1.40234 7.47988 1.47852 6.66738 1.47852C5.82948 1.47852 4.05214 1.40234 3.31581 1.70703C2.808 1.91016 2.42714 2.29102 2.22402 2.77344C1.91933 3.53516 1.9955 5.3125 1.9955 6.125C1.9955 6.96289 1.91933 8.74023 2.22402 9.47656C2.42714 9.98438 2.808 10.3652 3.31581 10.5684C4.05214 10.873 5.82948 10.7969 6.66738 10.7969C7.47988 10.7969 9.25722 10.873 10.0189 10.5684C10.5014 10.3652 10.9076 9.98438 11.0853 9.47656Z" fill="#C19D60"/>
</svg>
