<svg width="15" height="9" viewBox="0 0 15 9" fill="none" xmlns="http://www.w3.org/2000/svg">
<path d="M14.1928 0.621094C13.9896 1.48438 12.1615 4.07422 12.1615 4.07422C12.0092 4.32812 11.933 4.45508 12.1615 4.73438C12.2631 4.86133 14.1674 6.68945 14.4467 7.55273C14.5736 7.98438 14.3705 8.1875 13.9389 8.1875H12.4408C11.8822 8.1875 11.7045 7.75586 10.6889 6.74023C9.80019 5.87695 9.41933 5.75 9.19081 5.75C8.73378 5.75 8.80995 5.92773 8.80995 7.62891C8.80995 7.98438 8.683 8.1875 7.74355 8.1875C6.16933 8.1875 4.41738 7.24805 3.17323 5.4707C1.31972 2.85547 0.811906 0.900391 0.811906 0.494141C0.811906 0.265625 0.913469 0.0625 1.31972 0.0625H2.81777C3.19863 0.0625 3.35097 0.240234 3.50331 0.646484C4.23964 2.7793 5.45839 4.6582 5.9662 4.6582C6.16933 4.6582 6.2455 4.55664 6.2455 4.07422V1.86523C6.19472 0.849609 5.66152 0.773438 5.66152 0.417969C5.66152 0.240234 5.78847 0.0625 6.04238 0.0625H8.37831C8.70839 0.0625 8.80995 0.240234 8.80995 0.621094V3.5918C8.80995 3.89648 8.9623 4.02344 9.03847 4.02344C9.24159 4.02344 9.39394 3.89648 9.74941 3.56641C10.8158 2.34766 11.5775 0.494141 11.5775 0.494141C11.6791 0.265625 11.8568 0.0625 12.2377 0.0625H13.7357C14.1928 0.0625 14.2689 0.316406 14.1928 0.621094Z" fill="#C19D60"/>
</svg>
